<mxfile host="app.diagrams.net" modified="2023-04-07T04:20:27.001Z" agent="Mozilla/5.0 (Windows NT 10.0; Win64; x64) AppleWebKit/537.36 (KHTML, like Gecko) Chrome/111.0.0.0 Safari/537.36 Edg/111.0.1661.62" version="21.1.4" etag="bKyU7JiPRhO9r7HhKNzf" type="github">
  <diagram name="第 1 页" id="-JT5IwMcC_eJ9sd1i5j2">
    <mxGraphModel>
      <root>
        <mxCell id="0" />
        <mxCell id="1" parent="0" />
      </root>
    </mxGraphModel>
  </diagram>
</mxfile>
